<?xml version="1.0" standalone="no"?>
<!DOCTYPE svg PUBLIC "-//W3C//DTD SVG 20010904//EN"
 "http://www.w3.org/TR/2001/REC-SVG-20010904/DTD/svg10.dtd">
<svg version="1.0" xmlns="http://www.w3.org/2000/svg"
 width="512.000000pt" height="512.000000pt" viewBox="0 0 512.000000 512.000000"
 preserveAspectRatio="xMidYMid meet">
<metadata>
Created by potrace 1.11, written by Peter Selinger 2001-2013
</metadata>
<g transform="translate(0.000000,512.000000) scale(0.100000,-0.100000)"
fill="#000000" stroke="none">
<path d="M2365 4953 c-76 -6 -250 -34 -340 -54 -730 -164 -1360 -685 -1662
-1374 -144 -330 -204 -637 -198 -1027 1 -108 5 -200 8 -205 3 -4 8 -37 12 -73
4 -36 9 -68 11 -71 2 -4 6 -23 8 -42 20 -156 127 -463 229 -657 80 -153 214
-353 292 -436 5 -6 37 -41 70 -79 264 -301 709 -574 1113 -685 146 -40 262
-61 442 -80 75 -8 433 -5 480 3 14 3 47 8 73 12 27 4 59 8 70 11 12 2 34 6 49
9 386 71 803 275 1113 545 72 62 236 232 289 299 53 67 176 238 176 245 0 2
16 30 35 62 118 194 252 550 280 743 2 14 6 35 8 46 6 25 16 99 27 190 8 72 5
437 -4 490 -3 17 -8 52 -11 78 -4 41 -14 89 -50 256 -2 9 -15 52 -28 96 -116
376 -311 703 -579 976 -162 165 -237 227 -413 342 -290 189 -636 319 -970 363
-27 3 -59 8 -70 11 -24 5 -404 10 -460 6z m-396 -1132 c12 -11 77 -71 144
-134 67 -63 136 -126 152 -141 30 -28 214 -200 335 -312 36 -34 81 -77 101
-95 20 -19 90 -84 155 -145 208 -194 193 -182 228 -174 17 4 211 56 431 115
447 120 481 125 562 82 162 -86 167 -319 9 -416 -18 -12 -116 -43 -217 -70
-101 -27 -233 -63 -294 -79 -60 -16 -173 -46 -250 -67 -77 -20 -178 -47 -225
-60 -47 -13 -155 -42 -240 -64 -85 -23 -283 -75 -440 -117 -1150 -307 -1047
-282 -1059 -260 -12 24 -29 53 -161 281 -51 88 -103 178 -115 200 -13 22 -46
80 -74 128 -33 58 -46 89 -38 92 14 5 116 33 174 48 47 11 47 12 188 -99 39
-31 93 -74 122 -95 l52 -40 173 46 c95 26 207 56 248 67 41 11 91 24 110 29
19 5 43 11 53 14 10 2 52 14 95 25 42 12 84 23 92 25 8 1 14 9 12 16 -2 8 -89
163 -194 344 -105 182 -202 349 -214 372 -13 23 -63 108 -110 190 -48 81 -97
167 -110 189 l-23 42 42 11 c23 6 89 24 147 40 58 16 108 30 111 30 3 1 16 -8
28 -18z m2136 -2611 l0 -160 -1520 0 -1520 0 1 153 c1 83 2 155 3 160 0 4 684
7 1519 7 l1517 0 0 -160z"/>
</g>
</svg>
